<?xml version="1.0" encoding="UTF-8" standalone="no"?>
<!-- Created with Inkscape (http://www.inkscape.org/) -->

<svg
   xmlns:dc="http://purl.org/dc/elements/1.1/"
   xmlns:cc="http://creativecommons.org/ns#"
   xmlns:rdf="http://www.w3.org/1999/02/22-rdf-syntax-ns#"
   xmlns:svg="http://www.w3.org/2000/svg"
   xmlns="http://www.w3.org/2000/svg"
   xmlns:sodipodi="http://sodipodi.sourceforge.net/DTD/sodipodi-0.dtd"
   xmlns:inkscape="http://www.inkscape.org/namespaces/inkscape"
   width="744.09448819"
   height="1052.3622047"
   id="svg2998"
   version="1.1"
   inkscape:version="0.48.4 r9939"
   sodipodi:docname="egypt pattern.dxf">
  <sodipodi:namedview
     id="base"
     pagecolor="#ffffff"
     bordercolor="#666666"
     borderopacity="1.0"
     inkscape:pageopacity="0.0"
     inkscape:pageshadow="2"
     inkscape:zoom="0.70710678"
     inkscape:cx="781.58962"
     inkscape:cy="71.719031"
     inkscape:document-units="px"
     inkscape:current-layer="layer1"
     showgrid="true"
     inkscape:window-width="1842"
     inkscape:window-height="1057"
     inkscape:window-x="-8"
     inkscape:window-y="-8"
     inkscape:window-maximized="1">
    <inkscape:grid
       type="xygrid"
       id="grid3812"
       empspacing="5"
       visible="true"
       enabled="true"
       snapvisiblegridlinesonly="true" />
  </sodipodi:namedview>
  <defs
     id="defs3000" />
  <metadata
     id="metadata3003">
    <rdf:RDF>
      <cc:Work
         rdf:about="">
        <dc:format>image/svg+xml</dc:format>
        <dc:type
           rdf:resource="http://purl.org/dc/dcmitype/StillImage" />
        <dc:title></dc:title>
      </cc:Work>
    </rdf:RDF>
  </metadata>
  <g
     inkscape:label="Layer 1"
     inkscape:groupmode="layer"
     id="layer1">
    <path
       style="fill:#000000"
       d="M -46.135546,850.06961 0.01712891,823.59965 43.916459,849.32937 c 24.14468,14.15139 44.47329,26.3106 45.17481,27.02053 2.071767,2.09659 0.122217,3.79731 -11.76345,10.26229 L 66.060085,892.74108 40.596994,878.34445 C 19.996613,866.69716 15.006506,864.16849 14.466781,865.10332 c -0.562235,0.97382 -1.344028,47.62451 -2.383518,142.21758 -0.116536,10.6028 0.289338,20.2096 0.902016,21.3484 0.851566,1.5829 17.919636,11.9505 72.452008,44.0095 61.320773,36.0498 71.437253,41.767 72.044403,40.7154 0.3885,-0.6729 0.82034,-14.0108 0.95961,-29.6398 0.13924,-15.6289 0.5431,-28.9284 0.89742,-29.5543 0.86753,-1.5326 24.51321,-14.7745 25.43358,-14.2431 0.3998,0.2308 0.83345,1.1273 0.96365,1.9921 0.50128,3.3295 -0.69239,103.7066 -1.24464,104.6631 -0.55225,0.9565 -86.884569,52.1789 -90.018639,53.4095 -0.81403,0.3196 -1.80719,0.3923 -2.20699,0.1614 -0.920368,-0.5313 -1.275459,-27.63 -0.381952,-29.1476 0.364846,-0.6199 11.680741,-7.6193 25.146161,-15.5544 13.46549,-7.9352 24.8005,-14.978 25.189,-15.6509 0.60715,-1.0516 -9.40233,-6.9542 -71.282804,-42.0346 -55.030072,-31.1969 -72.5427419,-40.7945 -74.3393083,-40.7405 -1.292578,0.039 -9.8152527,4.4907 -18.9393167,9.893 -81.400221,48.1967 -121.410021,72.1992 -121.972271,73.173 -0.5397,0.9348 4.14523,3.9921 24.53229,16.0088 l 25.199387,14.8534 0.326063,12.8226 c 0.343982,13.5258 -0.154089,16.0645 -3.005666,15.3186 -0.9656,-0.2525 -21.660044,-11.7781 -45.987884,-25.6122 l -44.23225,-25.1531 -0.68168,-52.5537 c -0.37491,-28.9045 -0.37662,-53.0821 -0.004,-53.7279 0.54875,-0.9505 3.16618,0.3226 13.73044,6.6786 l 13.05235,7.8528 0.43518,29.2821 c 0.2683,18.0509 0.93906,29.4517 1.74887,29.7241 0.72244,0.2431 15.07089,-7.6379 31.88535,-17.5133 53.950842,-31.6862 111.178462,-65.9901 111.755562,-66.9897 0.577101,-0.9996 1.671363,-67.71208 2.13701,-130.278 0.145061,-19.49945 -0.204013,-35.86603 -0.775738,-36.37018 -0.640824,-0.56507 -10.849585,4.55443 -26.616249,13.34747 l -25.576617,14.26421 -13.326948,-7.37725 c -10.786523,-5.971 -13.19779,-7.60116 -12.64905,-8.5516 -0.04114,0.0713 20.898152,-12.01605 46.117604,-26.14364 z"
       id="path4043"
       inkscape:connector-curvature="0" />
  </g>
</svg>
