999
Inkscape export via Big Blue Saws DXF Export" (http://www.bigbluesaw.com/saw/big-blue-saw-blog/general-updates/big-blue-saws-dxf-export-for-inkscape.html)
  0
SECTION
  2
HEADER
  9
$ACADVER
  1
AC1014
  9
$HANDSEED
  5
FFFF
  0
$INSUNITS
 70
 1
 9
ENDSEC
  0
SECTION
  2
TABLES
  0
TABLE
  2
VPORT
  5
8
330
0
100
AcDbSymbolTable
 70
     4
  0
VPORT
  5
2E
330
8
100
AcDbSymbolTableRecord
100
AcDbViewportTableRecord
  2
*ACTIVE
 70
     0
 10
0.0
 20
0.0
 11
1.0
 21
1.0
 12
4.25
 22
5.5
 13
0.0
 23
0.0
 14
10.0
 24
10.0
 15
10.0
 25
10.0
 16
0.0
 26
0.0
 36
1.0
 17
0.0
 27
0.0
 37
0.0
 40
11
 41
1.24
 42
50.0
 43
0.0
 44
0.0
 50
0.0
 51
0.0
 71
     0
 72
   100
 73
     1
 74
     3
 75
     0
 76
     0
 77
     0
 78
     0
  0
ENDTAB
  0
TABLE
  2
LTYPE
  5
5
330
0
100
AcDbSymbolTable
 70
     1
  0
LTYPE
  5
14
330
5
100
AcDbSymbolTableRecord
100
AcDbLinetypeTableRecord
  2
BYBLOCK
 70
     0
  3

 72
    65
 73
     0
 40
0.0
  0
LTYPE
  5
15
330
5
100
AcDbSymbolTableRecord
100
AcDbLinetypeTableRecord
  2
BYLAYER
 70
     0
  3

 72
    65
 73
     0
 40
0.0
  0
LTYPE
  5
16
330
5
100
AcDbSymbolTableRecord
100
AcDbLinetypeTableRecord
  2
CONTINUOUS
 70
     0
  3
Solid line
 72
    65
 73
     0
 40
0.0
  0
ENDTAB
  0
TABLE
  2
STYLE
  5
3
330
0
100
AcDbSymbolTable
 70
     1
  0
STYLE
  5
11
330
3
100
AcDbSymbolTableRecord
100
AcDbTextStyleTableRecord
  2
STANDARD
 70
     0
 40
0.0
 41
1.0
 50
0.0
 71
     0
 42
2.5
  3
txt
  4

  0
ENDTAB
  0
TABLE
  2
VIEW
  5
6
330
0
100
AcDbSymbolTable
 70
     0
  0
ENDTAB
  0
TABLE
  2
UCS
  5
7
330
0
100
AcDbSymbolTable
 70
     0
  0
ENDTAB
  0
TABLE
  2
APPID
  5
9
330
0
100
AcDbSymbolTable
 70
     2
  0
APPID
  5
12
330
9
100
AcDbSymbolTableRecord
100
AcDbRegAppTableRecord
  2
ACAD
 70
     0
  0
ENDTAB
  0
TABLE
  2
DIMSTYLE
  5
A
330
0
100
AcDbSymbolTable
 70
     1
  0
DIMSTYLE
105
27
330
A
100
AcDbSymbolTableRecord
100
AcDbDimStyleTableRecord
  2
ISO-25
 70
     0
  3

  4

  5

  6

  7

 40
1.0
 41
2.5
 42
0.625
 43
3.75
 44
1.25
 45
0.0
 46
0.0
 47
0.0
 48
0.0
140
2.5
141
2.5
142
0.0
143
0.03937007874016
144
1.0
145
0.0
146
1.0
147
0.625
 71
     0
 72
     0
 73
     0
 74
     0
 75
     0
 76
     0
 77
     1
 78
     8
170
     0
171
     3
172
     1
173
     0
174
     0
175
     0
176
     0
177
     0
178
     0
270
     2
271
     2
272
     2
273
     2
274
     3
340
11
275
     0
280
     0
281
     0
282
     0
283
     0
284
     8
285
     0
286
     0
287
     3
288
     0
  0
ENDTAB
  0
TABLE
  2
BLOCK_RECORD
  5
1
330
0
100
AcDbSymbolTable
 70
     1
  0
BLOCK_RECORD
  5
1F
330
1
100
AcDbSymbolTableRecord
100
AcDbBlockTableRecord
  2
*MODEL_SPACE
  0
BLOCK_RECORD
  5
1B
330
1
100
AcDbSymbolTableRecord
100
AcDbBlockTableRecord
  2
*PAPER_SPACE
  0
ENDTAB
0
TABLE
2
LAYER
5
2
330
0
100
AcDbSymbolTable
70
1
0
LAYER
5
10
330
2
100
AcDbSymbolTableRecord
100
AcDbLayerTableRecord
2
Layer_1
70
0
62
7
6
CONTINUOUS
0
ENDTAB
0
ENDSEC
  0
SECTION
  2
BLOCKS
  0
BLOCK
  5
20
330
1F
100
AcDbEntity
  8
0
100
AcDbBlockBegin
  2
*MODEL_SPACE
 70
     0
 10
0.0
 20
0.0
 30
0.0
  3
*MODEL_SPACE
  1

  0
ENDBLK
  5
21
330
1F
100
AcDbEntity
  8
0
100
AcDbBlockEnd
  0
BLOCK
  5
1C
330
1B
100
AcDbEntity
 67
     1
  8
0
100
AcDbBlockBegin
  2
*PAPER_SPACE
  1

  0
ENDBLK
  5
1D
330
1B
100
AcDbEntity
 67
     1
  8
0
100
AcDbBlockEnd
  0
ENDSEC
  0
SECTION
  2
ENTITIES
0
LINE
8
Layer_1
62
0
5
100
100
AcDbEntity
100
AcDbLine
10
-0.512617
20
2.247695
30
0.0
11
0.000190
21
2.541806
31
0.0
0
LINE
8
Layer_1
62
0
5
101
100
AcDbEntity
100
AcDbLine
10
0.000190
20
2.541806
30
0.0
11
0.487961
21
2.255920
31
0.0
0
LINE
8
Layer_1
62
0
5
102
100
AcDbEntity
100
AcDbLine
10
0.487961
20
2.255920
30
0.0
11
0.989903
21
1.955692
31
0.0
0
LINE
8
Layer_1
62
0
5
103
100
AcDbEntity
100
AcDbLine
10
0.989903
20
1.955692
30
0.0
11
0.997763
21
1.938150
31
0.0
0
LINE
8
Layer_1
62
0
5
104
100
AcDbEntity
100
AcDbLine
10
0.997763
20
1.938150
30
0.0
11
0.982706
21
1.916881
31
0.0
0
LINE
8
Layer_1
62
0
5
105
100
AcDbEntity
100
AcDbLine
10
0.982706
20
1.916881
30
0.0
11
0.859198
21
1.841667
31
0.0
0
LINE
8
Layer_1
62
0
5
106
100
AcDbEntity
100
AcDbLine
10
0.859198
20
1.841667
30
0.0
11
0.734001
21
1.773568
31
0.0
0
LINE
8
Layer_1
62
0
5
107
100
AcDbEntity
100
AcDbLine
10
0.734001
20
1.773568
30
0.0
11
0.451078
21
1.933531
31
0.0
0
LINE
8
Layer_1
62
0
5
108
100
AcDbEntity
100
AcDbLine
10
0.451078
20
1.933531
30
0.0
11
0.222324
21
2.059518
31
0.0
0
LINE
8
Layer_1
62
0
5
109
100
AcDbEntity
100
AcDbLine
10
0.222324
20
2.059518
30
0.0
11
0.160742
21
2.080654
31
0.0
0
LINE
8
Layer_1
62
0
5
10a
100
AcDbEntity
100
AcDbLine
10
0.160742
20
2.080654
30
0.0
11
0.134258
21
0.500459
31
0.0
0
LINE
8
Layer_1
62
0
5
10b
100
AcDbEntity
100
AcDbLine
10
0.134258
20
0.500459
30
0.0
11
0.144281
21
0.263254
31
0.0
0
LINE
8
Layer_1
62
0
5
10c
100
AcDbEntity
100
AcDbLine
10
0.144281
20
0.263254
30
0.0
11
0.323122
21
0.145741
31
0.0
0
LINE
8
Layer_1
62
0
5
10d
100
AcDbEntity
100
AcDbLine
10
0.323122
20
0.145741
30
0.0
11
0.949303
21
-0.225740
31
0.0
0
LINE
8
Layer_1
62
0
5
10e
100
AcDbEntity
100
AcDbLine
10
0.949303
20
-0.225740
30
0.0
11
1.602523
21
-0.606526
31
0.0
0
LINE
8
Layer_1
62
0
5
10f
100
AcDbEntity
100
AcDbLine
10
1.602523
20
-0.606526
30
0.0
11
1.749797
21
-0.678133
31
0.0
0
LINE
8
Layer_1
62
0
5
110
100
AcDbEntity
100
AcDbLine
10
1.749797
20
-0.678133
30
0.0
11
1.760459
21
-0.348802
31
0.0
0
LINE
8
Layer_1
62
0
5
111
100
AcDbEntity
100
AcDbLine
10
1.760459
20
-0.348802
30
0.0
11
1.770430
21
-0.020421
31
0.0
0
LINE
8
Layer_1
62
0
5
112
100
AcDbEntity
100
AcDbLine
10
1.770430
20
-0.020421
30
0.0
11
1.911508
21
0.067307
31
0.0
0
LINE
8
Layer_1
62
0
5
113
100
AcDbEntity
100
AcDbLine
10
1.911508
20
0.067307
30
0.0
11
2.053026
21
0.137836
31
0.0
0
LINE
8
Layer_1
62
0
5
114
100
AcDbEntity
100
AcDbLine
10
2.053026
20
0.137836
30
0.0
11
2.063733
21
0.115701
31
0.0
0
LINE
8
Layer_1
62
0
5
115
100
AcDbEntity
100
AcDbLine
10
2.063733
20
0.115701
30
0.0
11
2.049903
21
-1.047222
31
0.0
0
LINE
8
Layer_1
62
0
5
116
100
AcDbEntity
100
AcDbLine
10
2.049903
20
-1.047222
30
0.0
11
1.049696
21
-1.640661
31
0.0
0
LINE
8
Layer_1
62
0
5
117
100
AcDbEntity
100
AcDbLine
10
1.049696
20
-1.640661
30
0.0
11
1.025174
21
-1.642454
31
0.0
0
LINE
8
Layer_1
62
0
5
118
100
AcDbEntity
100
AcDbLine
10
1.025174
20
-1.642454
30
0.0
11
1.015494
21
-1.484633
31
0.0
0
LINE
8
Layer_1
62
0
5
119
100
AcDbEntity
100
AcDbLine
10
1.015494
20
-1.484633
30
0.0
11
1.020930
21
-1.318592
31
0.0
0
LINE
8
Layer_1
62
0
5
11a
100
AcDbEntity
100
AcDbLine
10
1.020930
20
-1.318592
30
0.0
11
1.300332
21
-1.145766
31
0.0
0
LINE
8
Layer_1
62
0
5
11b
100
AcDbEntity
100
AcDbLine
10
1.300332
20
-1.145766
30
0.0
11
1.580210
21
-0.971867
31
0.0
0
LINE
8
Layer_1
62
0
5
11c
100
AcDbEntity
100
AcDbLine
10
1.580210
20
-0.971867
30
0.0
11
1.444559
21
-0.880128
31
0.0
0
LINE
8
Layer_1
62
0
5
11d
100
AcDbEntity
100
AcDbLine
10
1.444559
20
-0.880128
30
0.0
11
0.788179
21
-0.504816
31
0.0
0
LINE
8
Layer_1
62
0
5
11e
100
AcDbEntity
100
AcDbLine
10
0.788179
20
-0.504816
30
0.0
11
0.153376
21
-0.148267
31
0.0
0
LINE
8
Layer_1
62
0
5
11f
100
AcDbEntity
100
AcDbLine
10
0.153376
20
-0.148267
30
0.0
11
-0.037814
21
-0.052143
31
0.0
0
LINE
8
Layer_1
62
0
5
120
100
AcDbEntity
100
AcDbLine
10
-0.037814
20
-0.052143
30
0.0
11
-0.248250
21
-0.162066
31
0.0
0
LINE
8
Layer_1
62
0
5
121
100
AcDbEntity
100
AcDbLine
10
-0.248250
20
-0.162066
30
0.0
11
-1.603498
21
-0.975099
31
0.0
0
LINE
8
Layer_1
62
0
5
122
100
AcDbEntity
100
AcDbLine
10
-1.603498
20
-0.975099
30
0.0
11
-1.554402
21
-1.017862
31
0.0
0
LINE
8
Layer_1
62
0
5
123
100
AcDbEntity
100
AcDbLine
10
-1.554402
20
-1.017862
30
0.0
11
-1.330917
21
-1.152974
31
0.0
0
LINE
8
Layer_1
62
0
5
124
100
AcDbEntity
100
AcDbLine
10
-1.330917
20
-1.152974
30
0.0
11
-1.050924
21
-1.318012
31
0.0
0
LINE
8
Layer_1
62
0
5
125
100
AcDbEntity
100
AcDbLine
10
-1.050924
20
-1.318012
30
0.0
11
-1.047301
21
-1.460486
31
0.0
0
LINE
8
Layer_1
62
0
5
126
100
AcDbEntity
100
AcDbLine
10
-1.047301
20
-1.460486
30
0.0
11
-1.050684
21
-1.605054
31
0.0
0
LINE
8
Layer_1
62
0
5
127
100
AcDbEntity
100
AcDbLine
10
-1.050684
20
-1.605054
30
0.0
11
-1.061575
21
-1.628728
31
0.0
0
LINE
8
Layer_1
62
0
5
128
100
AcDbEntity
100
AcDbLine
10
-1.061575
20
-1.628728
30
0.0
11
-1.080697
21
-1.630692
31
0.0
0
LINE
8
Layer_1
62
0
5
129
100
AcDbEntity
100
AcDbLine
10
-1.080697
20
-1.630692
30
0.0
11
-1.591674
21
-1.346112
31
0.0
0
LINE
8
Layer_1
62
0
5
12a
100
AcDbEntity
100
AcDbLine
10
-1.591674
20
-1.346112
30
0.0
11
-2.083143
21
-1.066633
31
0.0
0
LINE
8
Layer_1
62
0
5
12b
100
AcDbEntity
100
AcDbLine
10
-2.083143
20
-1.066633
30
0.0
11
-2.090717
21
-0.482703
31
0.0
0
LINE
8
Layer_1
62
0
5
12c
100
AcDbEntity
100
AcDbLine
10
-2.090717
20
-0.482703
30
0.0
11
-2.090762
21
0.114273
31
0.0
0
LINE
8
Layer_1
62
0
5
12d
100
AcDbEntity
100
AcDbLine
10
-2.090762
20
0.114273
30
0.0
11
-2.056213
21
0.107614
31
0.0
0
LINE
8
Layer_1
62
0
5
12e
100
AcDbEntity
100
AcDbLine
10
-2.056213
20
0.107614
30
0.0
11
-1.938201
21
0.040067
31
0.0
0
LINE
8
Layer_1
62
0
5
12f
100
AcDbEntity
100
AcDbLine
10
-1.938201
20
0.040067
30
0.0
11
-1.793175
21
-0.047187
31
0.0
0
LINE
8
Layer_1
62
0
5
130
100
AcDbEntity
100
AcDbLine
10
-1.793175
20
-0.047187
30
0.0
11
-1.788340
21
-0.372543
31
0.0
0
LINE
8
Layer_1
62
0
5
131
100
AcDbEntity
100
AcDbLine
10
-1.788340
20
-0.372543
30
0.0
11
-1.768908
21
-0.702811
31
0.0
0
LINE
8
Layer_1
62
0
5
132
100
AcDbEntity
100
AcDbLine
10
-1.768908
20
-0.702811
30
0.0
11
-1.414626
21
-0.508219
31
0.0
0
LINE
8
Layer_1
62
0
5
133
100
AcDbEntity
100
AcDbLine
10
-1.414626
20
-0.508219
30
0.0
11
-0.172898
21
0.236111
31
0.0
0
LINE
8
Layer_1
62
0
5
134
100
AcDbEntity
100
AcDbLine
10
-0.172898
20
0.236111
30
0.0
11
-0.149153
21
1.683644
31
0.0
0
LINE
8
Layer_1
62
0
5
135
100
AcDbEntity
100
AcDbLine
10
-0.149153
20
1.683644
30
0.0
11
-0.157773
21
2.087758
31
0.0
0
LINE
8
Layer_1
62
0
5
136
100
AcDbEntity
100
AcDbLine
10
-0.157773
20
2.087758
30
0.0
11
-0.453509
21
1.939452
31
0.0
0
LINE
8
Layer_1
62
0
5
137
100
AcDbEntity
100
AcDbLine
10
-0.453509
20
1.939452
30
0.0
11
-0.737693
21
1.780961
31
0.0
0
LINE
8
Layer_1
62
0
5
138
100
AcDbEntity
100
AcDbLine
10
-0.737693
20
1.780961
30
0.0
11
-0.885770
21
1.862931
31
0.0
0
LINE
8
Layer_1
62
0
5
139
100
AcDbEntity
100
AcDbLine
10
-0.885770
20
1.862931
30
0.0
11
-1.003273
21
1.931358
31
0.0
0
LINE
8
Layer_1
62
0
5
13a
100
AcDbEntity
100
AcDbLine
10
-1.003273
20
1.931358
30
0.0
11
-1.026315
21
1.957948
31
0.0
0
LINE
8
Layer_1
62
0
5
13b
100
AcDbEntity
100
AcDbLine
10
-1.026315
20
1.957948
30
0.0
11
-0.513898
21
2.248433
31
0.0
0
LINE
8
Layer_1
62
0
5
13c
100
AcDbEntity
100
AcDbLine
10
-0.513898
20
2.248433
30
0.0
11
-0.512617
21
2.247695
31
0.0
  0
ENDSEC
  0
SECTION
  2
OBJECTS
  0
DICTIONARY
  5
C
330
0
100
AcDbDictionary
  3
ACAD_GROUP
350
D
  3
ACAD_MLINESTYLE
350
17
  0
DICTIONARY
  5
D
330
C
100
AcDbDictionary
  0
DICTIONARY
  5
1A
330
C
100
AcDbDictionary
  0
DICTIONARY
  5
17
330
C
100
AcDbDictionary
  3
STANDARD
350
18
  0
DICTIONARY
  5
19
330
C
100
AcDbDictionary
  0
ENDSEC
  0
EOF
