<?xml version="1.0" encoding="UTF-8" standalone="no"?>
<!-- Created with Inkscape (http://www.inkscape.org/) -->

<svg
   xmlns:dc="http://purl.org/dc/elements/1.1/"
   xmlns:cc="http://creativecommons.org/ns#"
   xmlns:rdf="http://www.w3.org/1999/02/22-rdf-syntax-ns#"
   xmlns:svg="http://www.w3.org/2000/svg"
   xmlns="http://www.w3.org/2000/svg"
   xmlns:sodipodi="http://sodipodi.sourceforge.net/DTD/sodipodi-0.dtd"
   xmlns:inkscape="http://www.inkscape.org/namespaces/inkscape"
   width="744.09448819"
   height="1052.3622047"
   id="svg2998"
   version="1.1"
   inkscape:version="0.48.4 r9939"
   sodipodi:docname="egypt pattern.svg">
  <sodipodi:namedview
     id="base"
     pagecolor="#ffffff"
     bordercolor="#666666"
     borderopacity="1.0"
     inkscape:pageopacity="0.0"
     inkscape:pageshadow="2"
     inkscape:zoom="0.70710678"
     inkscape:cx="397.20945"
     inkscape:cy="149.83469"
     inkscape:document-units="px"
     inkscape:current-layer="layer1"
     showgrid="true"
     inkscape:window-width="1602"
     inkscape:window-height="1027"
     inkscape:window-x="-8"
     inkscape:window-y="-8"
     inkscape:window-maximized="1">
    <inkscape:grid
       type="xygrid"
       id="grid3812"
       empspacing="5"
       visible="true"
       enabled="true"
       snapvisiblegridlinesonly="true" />
  </sodipodi:namedview>
  <defs
     id="defs3000" />
  <metadata
     id="metadata3003">
    <rdf:RDF>
      <cc:Work
         rdf:about="">
        <dc:format>image/svg+xml</dc:format>
        <dc:type
           rdf:resource="http://purl.org/dc/dcmitype/StillImage" />
        <dc:title></dc:title>
      </cc:Work>
    </rdf:RDF>
  </metadata>
  <g
     inkscape:label="Layer 1"
     inkscape:groupmode="layer"
     id="layer1">
    <g
       transform="matrix(6.9483058,0,0,6.9483058,-1419.5395,-459.60757)"
       id="layer1-4"
       inkscape:label="Layer 1">
      <g
         style="fill:#000000;fill-opacity:1;stroke:none"
         inkscape:transform-center-y="-3.8070424"
         transform="matrix(0.3925813,0,0,-0.3925813,143.63181,256.81333)"
         id="g3373">
        <g
           style="fill:#000000;fill-opacity:1;stroke:none"
           transform="translate(196.8828,104.5039)"
           id="g3015">
          <path
             id="path3017"
             style="fill:#000000;fill-opacity:1;fill-rule:nonzero;stroke:none"
             d="m 0,0 c 0,-0.873 0.255,-1.684 0.663,-2.387 0.828,-1.435 2.359,-2.412 4.138,-2.412 2.646,0 4.801,2.147 4.801,4.799 0,2.652 -2.155,4.801 -4.801,4.801 C 3.022,4.801 1.491,3.823 0.663,2.393 0.255,1.685 0,0.872 0,0 m -1.595,0 c 0,3.529 2.862,6.396 6.396,6.396 3.533,0 6.395,-2.867 6.395,-6.396 0,-3.534 -2.862,-6.394 -6.395,-6.394 -3.534,0 -6.396,2.86 -6.396,6.394"
             inkscape:connector-curvature="0" />
        </g>
        <g
           style="fill:#000000;fill-opacity:1;stroke:none"
           transform="translate(15.5586,159.853)"
           id="g3019">
          <path
             sodipodi:nodetypes="ssscssscccccsscccccccccccccccccccccscsssccccccccccccccsccscccsccccscccccccsccsssccscscccccccsccssscssscssccccccccccccscssssssssssssss"
             inkscape:connector-curvature="0"
             id="path3021"
             transform="matrix(0.8,0,0,-0.8,-11.071,14.5365)"
             d="M 7.90625,2 C 6.884375,2 5.884375,2.2525 4.96875,2.78125 3.1375,3.83875 2,5.7925 2,7.90625 l 0,102.28125 0,35.125 c 0,3.4425 2.80875,6.21875 6.25,6.21875 3.44125,0 6.21875,-2.77625 6.21875,-6.21875 l 0,-32.0625 L 38.75,99.21875 47.46875,94.1875 c 0.116133,0.251799 0.253391,0.478233 0.40625,0.71875 L 78.96875,148.625 c 1.145,1.80125 3.1175,2.90625 5.25,2.90625 l 19.78125,0 c 0.35496,0 0.69252,-0.0367 1.03125,-0.0937 0.0737,-0.0121 0.14582,-0.0165 0.21875,-0.0312 0.2028,-0.0415 0.39866,-0.0956 0.59375,-0.15625 0.19392,-0.0597 0.37663,-0.1409 0.5625,-0.21875 0.16521,-0.0699 0.34244,-0.13536 0.5,-0.21875 0.0208,-0.0109 0.0418,-0.0201 0.0625,-0.0312 0.26483,-0.14391 0.51014,-0.32055 0.75,-0.5 0.0838,-0.0627 0.1694,-0.12057 0.25,-0.1875 0.1757,-0.14506 0.34125,-0.27432 0.5,-0.4375 0.12161,-0.12543 0.23274,-0.27044 0.34375,-0.40625 0.10237,-0.1241 0.18857,-0.24311 0.28125,-0.375 0.0218,-0.0312 0.0413,-0.0621 0.0625,-0.0937 0.16273,-0.24098 0.30919,-0.48662 0.4375,-0.75 0.0474,-0.0984 0.0826,-0.21098 0.125,-0.3125 0.0915,-0.21636 0.18308,-0.42822 0.25,-0.65625 0,0 23.08625,-77.175 28.03125,-94.0625 7.56125,28.6025 24.875,94.15625 24.875,94.15625 0.7275,2.7525 3.2175,4.64875 6.0625,4.625 2.84375,-0.02 5.31625,-1.9575 6,-4.71875 0,0 15.7625,-63.5475 23.0625,-92.96875 4.70375,16.675 9.875,34.96875 9.875,34.96875 0.7575,2.685 3.21125,4.53125 6,4.53125 l 27.625,0 c 1.36879,1.09784 3.1071,1.75 5,1.75 4.4175,0 8,-3.5825 8,-8 0,-4.41125 -3.5825,-7.96875 -8,-7.96875 -1.8929,0 -3.63121,0.650815 -5,1.75 l -22.90625,0 c -2.17,-7.7025 -14.96875,-53.03125 -14.96875,-53.03125 -0.7675,-2.72 -3.26625,-4.575 -6.09375,-4.53125 -2.825,0.04375 -5.25625,1.97625 -5.9375,4.71875 0,0 -15.4525,62.26875 -22.875,92.1875 C 160.825,90.6075 144.3125,28.1875 144.3125,28.1875 c -0.715,-2.70375 -3.14,-4.58875 -5.9375,-4.625 -2.79625,-0.0375 -5.275,1.78375 -6.0625,4.46875 0,0 -30.76875,103.40875 -33,111.03125 l -11.65625,0 C 84.40875,133.945 58.40625,88.25 58.40625,88.25 58.34633,88.15574 58.282801,88.058683 58.21875,87.96875 L 99.4375,64.1875 c 1.8325,-1.0575 2.96875,-3.0125 2.96875,-5.125 0,-2.11625 -1.13625,-4.0675 -2.96875,-5.125 L 10.875,2.78125 C 9.959375,2.2525 8.928125,2 7.90625,2 z m 8.28125,17.53125 c 13.868751,8.008348 52.207361,30.134902 66.09375,38.15625 l -35.3125,0 c -0.774137,-4.609287 -4.764439,-8.125 -9.59375,-8.125 -1.214989,0 -2.364801,0.250117 -3.4375,0.65625 z M 13.84375,25.893243 31.5,51.5625 c -2.337181,1.780667 -3.875,4.584994 -3.875,7.75 0,3.068553 1.439878,5.806976 3.65625,7.59375 l -17.4375,23.810278 z m 285.375,-2.330743 c -2.81,-0.02375 -5.30125,1.82875 -6.0625,4.53125 0,0 -12.765,45.32625 -14.9375,53.03125 l -9.46875,0 C 266.02231,71.407815 257.07546,64.25 246.5,64.25 c -7.7875,0 -15.095,4.0175 -19.34375,10.53125 l 5.28125,0 c 3.55,-3.96375 8.6675,-6.3125 14.0625,-6.3125 10.4175,0 18.875,8.455 18.875,18.875 0,10.4175 -8.4575,18.90625 -18.875,18.90625 -5.2175,0 -10.15625,-2.2125 -13.6875,-5.9375 l -5.40625,0 c 4.28375,6.285 11.45875,10.125 19.09375,10.125 10.57546,0 19.52231,-7.12787 22.25,-16.84375 l 14.1875,0 c 2.79,0 5.24125,-1.8475 6,-4.53125 0,0 5.295,-18.8175 10.03125,-35.625 7.63875,28.91 24.75,93.71875 24.75,93.71875 0.72125,2.73 3.20625,4.61875 6.03125,4.625 2.8225,0.009 5.295,-1.86875 6.03125,-4.59375 0,0 17.595,-65.24 25.34375,-93.96875 4.74875,16.8425 10.09375,35.84375 10.09375,35.84375 0.7575,2.68375 3.2075,4.53125 6,4.53125 l 27.1875,0 0,8.3125 -14.1875,0 c -3.4425,0 -6.25,2.7775 -6.25,6.21875 0,3.44 2.8075,6.21875 6.25,6.21875 l 20.40625,0 20.40625,0 c 3.43875,0 6.25,-2.77875 6.25,-6.21875 0,-3.44125 -2.81125,-6.21875 -6.25,-6.21875 l -14.1875,0 0,-14.5625 c 0,-3.44 -2.77875,-6.21875 -6.21875,-6.21875 l -28.6875,0 c -2.17,-7.70375 -14.96875,-53.03125 -14.96875,-53.03125 -0.7625,-2.69875 -3.22625,-4.5475 -6.03125,-4.53125 -2.80125,0.015 -5.23875,1.8875 -5.96875,4.59375 0,0 -17.275,64.02 -25.15625,93.25 -7.73375,-29.25 -24.625,-93.21875 -24.625,-93.21875 -0.7175,-2.715 -3.1625,-4.6025 -5.96875,-4.625 z M 47.0625,60.40625 78.429409,63.689246 C 63.975599,72.032237 32.84375,88.96875 32.84375,88.96875 c 0,0 -9.042363,5.214506 -16.625,9.59375 l 17.46875,-30.25 c 1.141469,0.469004 2.376963,0.75 3.6875,0.75 5.014934,0 9.14555,-3.785904 9.6875,-8.65625 z M 399.125,120.5 c -3.44125,0 -6.21875,2.8075 -6.21875,6.25 0,3.44 2.7775,6.21875 6.21875,6.21875 l 23.4375,0 c 3.44125,0 6.25,-2.77875 6.25,-6.21875 0,-3.4425 -2.80875,-6.25 -6.25,-6.25 z m 10.9375,17.40625 c -3.44,0 -6.21875,2.7775 -6.21875,6.21875 0,3.4425 2.77875,6.21875 6.21875,6.21875 l 2.375,0 c 3.44,0 6.21875,-2.77625 6.21875,-6.21875 0,-3.44125 -2.77875,-6.21875 -6.21875,-6.21875 z"
             style="fill:#000000;fill-opacity:1;fill-rule:nonzero;stroke:none" />
        </g>
        <g
           style="fill:#000000;fill-opacity:1;stroke:none"
           transform="translate(30.7061,133.6226)"
           id="g3023">
          <path
             id="path3025"
             style="fill:#000000;fill-opacity:1;fill-rule:nonzero;stroke:none"
             d="M 0,0 11.21,-6.475 0,-12.95 0,0 z"
             inkscape:connector-curvature="0" />
        </g>
        <g
           style="fill:#000000;fill-opacity:1;stroke:none"
           transform="translate(30.7061,133.6226)"
           id="g3027" />
        <g
           style="fill:#000000;fill-opacity:1;stroke:none"
           transform="translate(208.0791,104.5039)"
           id="g3031" />
        <g
           style="fill:#000000;fill-opacity:1;stroke:none"
           transform="translate(87.6826,53.1641)"
           id="g3035" />
        <g
           style="fill:#000000;fill-opacity:1;stroke:none"
           transform="translate(44.3335,105.3335)"
           id="g3039" />
        <g
           style="fill:#000000;fill-opacity:1;stroke:none"
           transform="translate(6.0928,87.7373)"
           id="g3043" />
        <g
           style="fill:#000000;fill-opacity:1;stroke:none"
           transform="translate(293.2412,155.5479)"
           id="g3047" />
        <g
           style="fill:#000000;fill-opacity:1;stroke:none"
           transform="translate(316.6572,92.8716)"
           id="g3051" />
        <g
           style="fill:#000000;fill-opacity:1;stroke:none"
           transform="translate(332.9844,92.8716)"
           id="g3055" />
        <g
           style="fill:#000000;fill-opacity:1;stroke:none"
           transform="translate(323.7979,77.9775)"
           id="g3059" />
        <g
           style="fill:#000000;fill-opacity:1;stroke:none"
           transform="translate(332.5381,64.0723)"
           id="g3063" />
        <g
           style="fill:#000000;fill-opacity:1;stroke:none"
           transform="translate(30.7061,120.6729)"
           id="g3067" />
        <g
           style="fill:#000000;fill-opacity:1;stroke:none"
           transform="translate(30.7061,133.6226)"
           id="g3071" />
        <g
           style="fill:#000000;fill-opacity:1;stroke:none"
           transform="translate(41.916,127.1475)"
           id="g3075" />
        <g
           style="fill:#000000;fill-opacity:1;stroke:none"
           transform="translate(201.6836,122.9824)"
           id="g3079" />
      </g>
    </g>
  </g>
</svg>
