999
Inkscape export via Big Blue Saws DXF Export" (http://www.bigbluesaw.com/saw/big-blue-saw-blog/general-updates/big-blue-saws-dxf-export-for-inkscape.html)
  0
SECTION
  2
HEADER
  9
$ACADVER
  1
AC1014
  9
$HANDSEED
  5
FFFF
  0
$INSUNITS
 70
 1
 9
ENDSEC
  0
SECTION
  2
TABLES
  0
TABLE
  2
VPORT
  5
8
330
0
100
AcDbSymbolTable
 70
     4
  0
VPORT
  5
2E
330
8
100
AcDbSymbolTableRecord
100
AcDbViewportTableRecord
  2
*ACTIVE
 70
     0
 10
0.0
 20
0.0
 11
1.0
 21
1.0
 12
4.25
 22
5.5
 13
0.0
 23
0.0
 14
10.0
 24
10.0
 15
10.0
 25
10.0
 16
0.0
 26
0.0
 36
1.0
 17
0.0
 27
0.0
 37
0.0
 40
11
 41
1.24
 42
50.0
 43
0.0
 44
0.0
 50
0.0
 51
0.0
 71
     0
 72
   100
 73
     1
 74
     3
 75
     0
 76
     0
 77
     0
 78
     0
  0
ENDTAB
  0
TABLE
  2
LTYPE
  5
5
330
0
100
AcDbSymbolTable
 70
     1
  0
LTYPE
  5
14
330
5
100
AcDbSymbolTableRecord
100
AcDbLinetypeTableRecord
  2
BYBLOCK
 70
     0
  3

 72
    65
 73
     0
 40
0.0
  0
LTYPE
  5
15
330
5
100
AcDbSymbolTableRecord
100
AcDbLinetypeTableRecord
  2
BYLAYER
 70
     0
  3

 72
    65
 73
     0
 40
0.0
  0
LTYPE
  5
16
330
5
100
AcDbSymbolTableRecord
100
AcDbLinetypeTableRecord
  2
CONTINUOUS
 70
     0
  3
Solid line
 72
    65
 73
     0
 40
0.0
  0
ENDTAB
  0
TABLE
  2
STYLE
  5
3
330
0
100
AcDbSymbolTable
 70
     1
  0
STYLE
  5
11
330
3
100
AcDbSymbolTableRecord
100
AcDbTextStyleTableRecord
  2
STANDARD
 70
     0
 40
0.0
 41
1.0
 50
0.0
 71
     0
 42
2.5
  3
txt
  4

  0
ENDTAB
  0
TABLE
  2
VIEW
  5
6
330
0
100
AcDbSymbolTable
 70
     0
  0
ENDTAB
  0
TABLE
  2
UCS
  5
7
330
0
100
AcDbSymbolTable
 70
     0
  0
ENDTAB
  0
TABLE
  2
APPID
  5
9
330
0
100
AcDbSymbolTable
 70
     2
  0
APPID
  5
12
330
9
100
AcDbSymbolTableRecord
100
AcDbRegAppTableRecord
  2
ACAD
 70
     0
  0
ENDTAB
  0
TABLE
  2
DIMSTYLE
  5
A
330
0
100
AcDbSymbolTable
 70
     1
  0
DIMSTYLE
105
27
330
A
100
AcDbSymbolTableRecord
100
AcDbDimStyleTableRecord
  2
ISO-25
 70
     0
  3

  4

  5

  6

  7

 40
1.0
 41
2.5
 42
0.625
 43
3.75
 44
1.25
 45
0.0
 46
0.0
 47
0.0
 48
0.0
140
2.5
141
2.5
142
0.0
143
0.03937007874016
144
1.0
145
0.0
146
1.0
147
0.625
 71
     0
 72
     0
 73
     0
 74
     0
 75
     0
 76
     0
 77
     1
 78
     8
170
     0
171
     3
172
     1
173
     0
174
     0
175
     0
176
     0
177
     0
178
     0
270
     2
271
     2
272
     2
273
     2
274
     3
340
11
275
     0
280
     0
281
     0
282
     0
283
     0
284
     8
285
     0
286
     0
287
     3
288
     0
  0
ENDTAB
  0
TABLE
  2
BLOCK_RECORD
  5
1
330
0
100
AcDbSymbolTable
 70
     1
  0
BLOCK_RECORD
  5
1F
330
1
100
AcDbSymbolTableRecord
100
AcDbBlockTableRecord
  2
*MODEL_SPACE
  0
BLOCK_RECORD
  5
1B
330
1
100
AcDbSymbolTableRecord
100
AcDbBlockTableRecord
  2
*PAPER_SPACE
  0
ENDTAB
0
TABLE
2
LAYER
5
2
330
0
100
AcDbSymbolTable
70
1
0
LAYER
5
10
330
2
100
AcDbSymbolTableRecord
100
AcDbLayerTableRecord
2
Default
70
0
62
7
6
CONTINUOUS
0
ENDTAB
0
ENDSEC
  0
SECTION
  2
BLOCKS
  0
BLOCK
  5
20
330
1F
100
AcDbEntity
  8
0
100
AcDbBlockBegin
  2
*MODEL_SPACE
 70
     0
 10
0.0
 20
0.0
 30
0.0
  3
*MODEL_SPACE
  1

  0
ENDBLK
  5
21
330
1F
100
AcDbEntity
  8
0
100
AcDbBlockEnd
  0
BLOCK
  5
1C
330
1B
100
AcDbEntity
 67
     1
  8
0
100
AcDbBlockBegin
  2
*PAPER_SPACE
  1

  0
ENDBLK
  5
1D
330
1B
100
AcDbEntity
 67
     1
  8
0
100
AcDbBlockEnd
  0
ENDSEC
  0
SECTION
  2
ENTITIES
0
LINE
8
Default
62
0
5
100
100
AcDbEntity
100
AcDbLine
10
0.000000
20
3.853962
30
0.0
11
0.007367
21
3.880484
31
0.0
0
LINE
8
Default
62
0
5
101
100
AcDbEntity
100
AcDbLine
10
0.007367
20
3.880484
30
0.0
11
0.053344
21
3.907284
31
0.0
0
LINE
8
Default
62
0
5
102
100
AcDbEntity
100
AcDbLine
10
0.053344
20
3.907284
30
0.0
11
0.091042
21
3.891673
31
0.0
0
LINE
8
Default
62
0
5
103
100
AcDbEntity
100
AcDbLine
10
0.091042
20
3.891673
30
0.0
11
0.106689
21
3.853962
31
0.0
0
LINE
8
Default
62
0
5
104
100
AcDbEntity
100
AcDbLine
10
0.106689
20
3.853962
30
0.0
11
0.091042
21
3.816239
31
0.0
0
LINE
8
Default
62
0
5
105
100
AcDbEntity
100
AcDbLine
10
0.091042
20
3.816239
30
0.0
11
0.053344
21
3.800617
31
0.0
0
LINE
8
Default
62
0
5
106
100
AcDbEntity
100
AcDbLine
10
0.053344
20
3.800617
30
0.0
11
0.007367
21
3.827373
31
0.0
0
LINE
8
Default
62
0
5
107
100
AcDbEntity
100
AcDbLine
10
0.007367
20
3.827373
30
0.0
11
0.000000
21
3.853962
31
0.0
0
LINE
8
Default
62
0
5
108
100
AcDbEntity
100
AcDbLine
10
-0.017722
20
3.853962
30
0.0
11
0.003086
21
3.803724
31
0.0
0
LINE
8
Default
62
0
5
109
100
AcDbEntity
100
AcDbLine
10
0.003086
20
3.803724
30
0.0
11
0.053344
21
3.782895
31
0.0
0
LINE
8
Default
62
0
5
10a
100
AcDbEntity
100
AcDbLine
10
0.053344
20
3.782895
30
0.0
11
0.103593
21
3.803724
31
0.0
0
LINE
8
Default
62
0
5
10b
100
AcDbEntity
100
AcDbLine
10
0.103593
20
3.803724
30
0.0
11
0.124400
21
3.853962
31
0.0
0
LINE
8
Default
62
0
5
10c
100
AcDbEntity
100
AcDbLine
10
0.124400
20
3.853962
30
0.0
11
0.103593
21
3.904209
31
0.0
0
LINE
8
Default
62
0
5
10d
100
AcDbEntity
100
AcDbLine
10
0.103593
20
3.904209
30
0.0
11
0.053344
21
3.925006
31
0.0
0
LINE
8
Default
62
0
5
10e
100
AcDbEntity
100
AcDbLine
10
0.053344
20
3.925006
30
0.0
11
0.003086
21
3.904209
31
0.0
0
LINE
8
Default
62
0
5
10f
100
AcDbEntity
100
AcDbLine
10
0.003086
20
3.904209
30
0.0
11
-0.017722
21
3.853962
31
0.0
0
LINE
8
Default
62
0
5
110
100
AcDbEntity
100
AcDbLine
10
-0.052733
20
3.710223
30
0.0
11
-0.078844
21
3.717167
31
0.0
0
LINE
8
Default
62
0
5
111
100
AcDbEntity
100
AcDbLine
10
-0.078844
20
3.717167
30
0.0
11
-0.105233
21
3.762723
31
0.0
0
LINE
8
Default
62
0
5
112
100
AcDbEntity
100
AcDbLine
10
-0.105233
20
3.762723
30
0.0
11
-0.105233
21
4.671889
31
0.0
0
LINE
8
Default
62
0
5
113
100
AcDbEntity
100
AcDbLine
10
-0.105233
20
4.671889
30
0.0
11
-0.105233
21
4.984112
31
0.0
0
LINE
8
Default
62
0
5
114
100
AcDbEntity
100
AcDbLine
10
-0.105233
20
4.984112
30
0.0
11
-0.088926
21
5.023225
31
0.0
0
LINE
8
Default
62
0
5
115
100
AcDbEntity
100
AcDbLine
10
-0.088926
20
5.023225
30
0.0
11
-0.049678
21
5.039389
31
0.0
0
LINE
8
Default
62
0
5
116
100
AcDbEntity
100
AcDbLine
10
-0.049678
20
5.039389
30
0.0
11
-0.010568
21
5.023225
31
0.0
0
LINE
8
Default
62
0
5
117
100
AcDbEntity
100
AcDbLine
10
-0.010568
20
5.023225
30
0.0
11
0.005600
21
4.984112
31
0.0
0
LINE
8
Default
62
0
5
118
100
AcDbEntity
100
AcDbLine
10
0.005600
20
4.984112
30
0.0
11
0.005600
21
4.699112
31
0.0
0
LINE
8
Default
62
0
5
119
100
AcDbEntity
100
AcDbLine
10
0.005600
20
4.699112
30
0.0
11
0.221433
21
4.574389
31
0.0
0
LINE
8
Default
62
0
5
11a
100
AcDbEntity
100
AcDbLine
10
0.221433
20
4.574389
30
0.0
11
0.298933
21
4.529667
31
0.0
0
LINE
8
Default
62
0
5
11b
100
AcDbEntity
100
AcDbLine
10
0.298933
20
4.529667
30
0.0
11
0.302544
21
4.536056
31
0.0
0
LINE
8
Default
62
0
5
11c
100
AcDbEntity
100
AcDbLine
10
0.302544
20
4.536056
30
0.0
11
0.578933
21
5.013556
31
0.0
0
LINE
8
Default
62
0
5
11d
100
AcDbEntity
100
AcDbLine
10
0.578933
20
5.013556
30
0.0
11
0.625600
21
5.039389
31
0.0
0
LINE
8
Default
62
0
5
11e
100
AcDbEntity
100
AcDbLine
10
0.625600
20
5.039389
30
0.0
11
0.801433
21
5.039389
31
0.0
0
LINE
8
Default
62
0
5
11f
100
AcDbEntity
100
AcDbLine
10
0.801433
20
5.039389
30
0.0
11
0.810600
21
5.038556
31
0.0
0
LINE
8
Default
62
0
5
120
100
AcDbEntity
100
AcDbLine
10
0.810600
20
5.038556
30
0.0
11
0.812544
21
5.038279
31
0.0
0
LINE
8
Default
62
0
5
121
100
AcDbEntity
100
AcDbLine
10
0.812544
20
5.038279
30
0.0
11
0.817822
21
5.036890
31
0.0
0
LINE
8
Default
62
0
5
122
100
AcDbEntity
100
AcDbLine
10
0.817822
20
5.036890
30
0.0
11
0.822822
21
5.034946
31
0.0
0
LINE
8
Default
62
0
5
123
100
AcDbEntity
100
AcDbLine
10
0.822822
20
5.034946
30
0.0
11
0.827267
21
5.033001
31
0.0
0
LINE
8
Default
62
0
5
124
100
AcDbEntity
100
AcDbLine
10
0.827267
20
5.033001
30
0.0
11
0.827822
21
5.032724
31
0.0
0
LINE
8
Default
62
0
5
125
100
AcDbEntity
100
AcDbLine
10
0.827822
20
5.032724
30
0.0
11
0.834489
21
5.028280
31
0.0
0
LINE
8
Default
62
0
5
126
100
AcDbEntity
100
AcDbLine
10
0.834489
20
5.028280
30
0.0
11
0.836711
21
5.026613
31
0.0
0
LINE
8
Default
62
0
5
127
100
AcDbEntity
100
AcDbLine
10
0.836711
20
5.026613
30
0.0
11
0.841156
21
5.022724
31
0.0
0
LINE
8
Default
62
0
5
128
100
AcDbEntity
100
AcDbLine
10
0.841156
20
5.022724
30
0.0
11
0.844211
21
5.019113
31
0.0
0
LINE
8
Default
62
0
5
129
100
AcDbEntity
100
AcDbLine
10
0.844211
20
5.019113
30
0.0
11
0.846711
21
5.015780
31
0.0
0
LINE
8
Default
62
0
5
12a
100
AcDbEntity
100
AcDbLine
10
0.846711
20
5.015780
30
0.0
11
0.847267
21
5.014947
31
0.0
0
LINE
8
Default
62
0
5
12b
100
AcDbEntity
100
AcDbLine
10
0.847267
20
5.014947
30
0.0
11
0.851156
21
5.008280
31
0.0
0
LINE
8
Default
62
0
5
12c
100
AcDbEntity
100
AcDbLine
10
0.851156
20
5.008280
30
0.0
11
0.852267
21
5.005502
31
0.0
0
LINE
8
Default
62
0
5
12d
100
AcDbEntity
100
AcDbLine
10
0.852267
20
5.005502
30
0.0
11
0.854489
21
4.999669
31
0.0
0
LINE
8
Default
62
0
5
12e
100
AcDbEntity
100
AcDbLine
10
0.854489
20
4.999669
30
0.0
11
1.103656
21
4.163558
31
0.0
0
LINE
8
Default
62
0
5
12f
100
AcDbEntity
100
AcDbLine
10
1.103656
20
4.163558
30
0.0
11
1.324767
21
5.000502
31
0.0
0
LINE
8
Default
62
0
5
130
100
AcDbEntity
100
AcDbLine
10
1.324767
20
5.000502
30
0.0
11
1.344653
21
5.030312
31
0.0
0
LINE
8
Default
62
0
5
131
100
AcDbEntity
100
AcDbLine
10
1.344653
20
5.030312
30
0.0
11
1.378656
21
5.041613
31
0.0
0
LINE
8
Default
62
0
5
132
100
AcDbEntity
100
AcDbLine
10
1.378656
20
5.041613
30
0.0
11
1.412522
21
5.029779
31
0.0
0
LINE
8
Default
62
0
5
133
100
AcDbEntity
100
AcDbLine
10
1.412522
20
5.029779
30
0.0
11
1.431989
21
4.999669
31
0.0
0
LINE
8
Default
62
0
5
134
100
AcDbEntity
100
AcDbLine
10
1.431989
20
4.999669
30
0.0
11
1.636989
21
4.173280
31
0.0
0
LINE
8
Default
62
0
5
135
100
AcDbEntity
100
AcDbLine
10
1.636989
20
4.173280
30
0.0
11
1.724767
21
4.484113
31
0.0
0
LINE
8
Default
62
0
5
136
100
AcDbEntity
100
AcDbLine
10
1.724767
20
4.484113
30
0.0
11
1.744663
21
4.513202
31
0.0
0
LINE
8
Default
62
0
5
137
100
AcDbEntity
100
AcDbLine
10
1.744663
20
4.513202
30
0.0
11
1.778100
21
4.524391
31
0.0
0
LINE
8
Default
62
0
5
138
100
AcDbEntity
100
AcDbLine
10
1.778100
20
4.524391
30
0.0
11
2.023656
21
4.524391
31
0.0
0
LINE
8
Default
62
0
5
139
100
AcDbEntity
100
AcDbLine
10
2.023656
20
4.524391
30
0.0
11
2.068100
21
4.539947
31
0.0
0
LINE
8
Default
62
0
5
13a
100
AcDbEntity
100
AcDbLine
10
2.068100
20
4.539947
30
0.0
11
2.118381
21
4.519116
31
0.0
0
LINE
8
Default
62
0
5
13b
100
AcDbEntity
100
AcDbLine
10
2.118381
20
4.519116
30
0.0
11
2.139211
21
4.468836
31
0.0
0
LINE
8
Default
62
0
5
13c
100
AcDbEntity
100
AcDbLine
10
2.139211
20
4.468836
30
0.0
11
2.118381
21
4.418715
31
0.0
0
LINE
8
Default
62
0
5
13d
100
AcDbEntity
100
AcDbLine
10
2.118381
20
4.418715
30
0.0
11
2.068100
21
4.398002
31
0.0
0
LINE
8
Default
62
0
5
13e
100
AcDbEntity
100
AcDbLine
10
2.068100
20
4.398002
30
0.0
11
2.023656
21
4.413558
31
0.0
0
LINE
8
Default
62
0
5
13f
100
AcDbEntity
100
AcDbLine
10
2.023656
20
4.413558
30
0.0
11
1.820044
21
4.413558
31
0.0
0
LINE
8
Default
62
0
5
140
100
AcDbEntity
100
AcDbLine
10
1.820044
20
4.413558
30
0.0
11
1.686989
21
3.942169
31
0.0
0
LINE
8
Default
62
0
5
141
100
AcDbEntity
100
AcDbLine
10
1.686989
20
3.942169
30
0.0
11
1.666772
21
3.912817
31
0.0
0
LINE
8
Default
62
0
5
142
100
AcDbEntity
100
AcDbLine
10
1.666772
20
3.912817
30
0.0
11
1.632822
21
3.901891
31
0.0
0
LINE
8
Default
62
0
5
143
100
AcDbEntity
100
AcDbLine
10
1.632822
20
3.901891
30
0.0
11
1.599288
21
3.913867
31
0.0
0
LINE
8
Default
62
0
5
144
100
AcDbEntity
100
AcDbLine
10
1.599288
20
3.913867
30
0.0
11
1.580044
21
3.943836
31
0.0
0
LINE
8
Default
62
0
5
145
100
AcDbEntity
100
AcDbLine
10
1.580044
20
3.943836
30
0.0
11
1.376711
21
4.763280
31
0.0
0
LINE
8
Default
62
0
5
146
100
AcDbEntity
100
AcDbLine
10
1.376711
20
4.763280
30
0.0
11
1.159767
21
3.943000
31
0.0
0
LINE
8
Default
62
0
5
147
100
AcDbEntity
100
AcDbLine
10
1.159767
20
3.943000
30
0.0
11
1.140319
21
3.913553
31
0.0
0
LINE
8
Default
62
0
5
148
100
AcDbEntity
100
AcDbLine
10
1.140319
20
3.913553
30
0.0
11
1.106989
21
3.901889
31
0.0
0
LINE
8
Default
62
0
5
149
100
AcDbEntity
100
AcDbLine
10
1.106989
20
3.901889
30
0.0
11
1.073349
21
3.912675
31
0.0
0
LINE
8
Default
62
0
5
14a
100
AcDbEntity
100
AcDbLine
10
1.073349
20
3.912675
30
0.0
11
1.053100
21
3.941612
31
0.0
0
LINE
8
Default
62
0
5
14b
100
AcDbEntity
100
AcDbLine
10
1.053100
20
3.941612
30
0.0
11
0.759767
21
4.928556
31
0.0
0
LINE
8
Default
62
0
5
14c
100
AcDbEntity
100
AcDbLine
10
0.759767
20
4.928556
30
0.0
11
0.656156
21
4.928556
31
0.0
0
LINE
8
Default
62
0
5
14d
100
AcDbEntity
100
AcDbLine
10
0.656156
20
4.928556
30
0.0
11
0.396156
21
4.476889
31
0.0
0
LINE
8
Default
62
0
5
14e
100
AcDbEntity
100
AcDbLine
10
0.396156
20
4.476889
30
0.0
11
0.394489
21
4.474389
31
0.0
0
LINE
8
Default
62
0
5
14f
100
AcDbEntity
100
AcDbLine
10
0.394489
20
4.474389
30
0.0
11
0.760878
21
4.263000
31
0.0
0
LINE
8
Default
62
0
5
150
100
AcDbEntity
100
AcDbLine
10
0.760878
20
4.263000
30
0.0
11
0.787267
21
4.217445
31
0.0
0
LINE
8
Default
62
0
5
151
100
AcDbEntity
100
AcDbLine
10
0.787267
20
4.217445
30
0.0
11
0.760878
21
4.171889
31
0.0
0
LINE
8
Default
62
0
5
152
100
AcDbEntity
100
AcDbLine
10
0.760878
20
4.171889
30
0.0
11
-0.026344
21
3.717167
31
0.0
0
LINE
8
Default
62
0
5
153
100
AcDbEntity
100
AcDbLine
10
-0.026344
20
3.717167
30
0.0
11
-0.052733
21
3.710223
31
0.0
0
LINE
8
Default
62
0
5
154
100
AcDbEntity
100
AcDbLine
10
-0.052733
20
3.710223
30
0.0
11
-0.052733
21
3.710223
31
0.0
0
LINE
8
Default
62
0
5
155
100
AcDbEntity
100
AcDbLine
10
0.020878
20
3.866056
30
0.0
11
0.608378
21
4.205223
31
0.0
0
LINE
8
Default
62
0
5
156
100
AcDbEntity
100
AcDbLine
10
0.608378
20
4.205223
30
0.0
11
0.294489
21
4.205223
31
0.0
0
LINE
8
Default
62
0
5
157
100
AcDbEntity
100
AcDbLine
10
0.294489
20
4.205223
30
0.0
11
0.265367
21
4.153747
31
0.0
0
LINE
8
Default
62
0
5
158
100
AcDbEntity
100
AcDbLine
10
0.265367
20
4.153747
30
0.0
11
0.209211
21
4.133000
31
0.0
0
LINE
8
Default
62
0
5
159
100
AcDbEntity
100
AcDbLine
10
0.209211
20
4.133000
30
0.0
11
0.178656
21
4.138834
31
0.0
0
LINE
8
Default
62
0
5
15a
100
AcDbEntity
100
AcDbLine
10
0.178656
20
4.138834
30
0.0
11
0.020878
21
3.866056
31
0.0
0
LINE
8
Default
62
0
5
15b
100
AcDbEntity
100
AcDbLine
10
0.000044
20
3.922607
30
0.0
11
0.156989
21
4.150778
31
0.0
0
LINE
8
Default
62
0
5
15c
100
AcDbEntity
100
AcDbLine
10
0.156989
20
4.150778
30
0.0
11
0.131976
21
4.180608
31
0.0
0
LINE
8
Default
62
0
5
15d
100
AcDbEntity
100
AcDbLine
10
0.131976
20
4.180608
30
0.0
11
0.122544
21
4.219667
31
0.0
0
LINE
8
Default
62
0
5
15e
100
AcDbEntity
100
AcDbLine
10
0.122544
20
4.219667
30
0.0
11
0.131407
21
4.257690
31
0.0
0
LINE
8
Default
62
0
5
15f
100
AcDbEntity
100
AcDbLine
10
0.131407
20
4.257690
30
0.0
11
0.155044
21
4.287167
31
0.0
0
LINE
8
Default
62
0
5
160
100
AcDbEntity
100
AcDbLine
10
0.155044
20
4.287167
30
0.0
11
0.000044
21
4.498814
31
0.0
0
LINE
8
Default
62
0
5
161
100
AcDbEntity
100
AcDbLine
10
0.000044
20
4.498814
30
0.0
11
0.000044
21
3.922607
31
0.0
0
LINE
8
Default
62
0
5
162
100
AcDbEntity
100
AcDbLine
10
2.536711
20
3.901889
30
0.0
11
2.502938
21
3.912941
31
0.0
0
LINE
8
Default
62
0
5
163
100
AcDbEntity
100
AcDbLine
10
2.502938
20
3.912941
30
0.0
11
2.482822
21
3.942167
31
0.0
0
LINE
8
Default
62
0
5
164
100
AcDbEntity
100
AcDbLine
10
2.482822
20
3.942167
30
0.0
11
2.350044
21
4.413556
31
0.0
0
LINE
8
Default
62
0
5
165
100
AcDbEntity
100
AcDbLine
10
2.350044
20
4.413556
30
0.0
11
2.265878
21
4.413556
31
0.0
0
LINE
8
Default
62
0
5
166
100
AcDbEntity
100
AcDbLine
10
2.265878
20
4.413556
30
0.0
11
2.237965
21
4.353679
31
0.0
0
LINE
8
Default
62
0
5
167
100
AcDbEntity
100
AcDbLine
10
2.237965
20
4.353679
30
0.0
11
2.193148
21
4.306165
31
0.0
0
LINE
8
Default
62
0
5
168
100
AcDbEntity
100
AcDbLine
10
2.193148
20
4.306165
30
0.0
11
2.135251
21
4.274847
31
0.0
0
LINE
8
Default
62
0
5
169
100
AcDbEntity
100
AcDbLine
10
2.135251
20
4.274847
30
0.0
11
2.068100
21
4.263556
31
0.0
0
LINE
8
Default
62
0
5
16a
100
AcDbEntity
100
AcDbLine
10
2.068100
20
4.263556
30
0.0
11
1.970332
21
4.288649
31
0.0
0
LINE
8
Default
62
0
5
16b
100
AcDbEntity
100
AcDbLine
10
1.970332
20
4.288649
30
0.0
11
1.896156
21
4.357167
31
0.0
0
LINE
8
Default
62
0
5
16c
100
AcDbEntity
100
AcDbLine
10
1.896156
20
4.357167
30
0.0
11
1.943100
21
4.357167
31
0.0
0
LINE
8
Default
62
0
5
16d
100
AcDbEntity
100
AcDbLine
10
1.943100
20
4.357167
30
0.0
11
1.999450
21
4.315899
31
0.0
0
LINE
8
Default
62
0
5
16e
100
AcDbEntity
100
AcDbLine
10
1.999450
20
4.315899
30
0.0
11
2.068100
21
4.301056
31
0.0
0
LINE
8
Default
62
0
5
16f
100
AcDbEntity
100
AcDbLine
10
2.068100
20
4.301056
30
0.0
11
2.133381
21
4.314246
31
0.0
0
LINE
8
Default
62
0
5
170
100
AcDbEntity
100
AcDbLine
10
2.133381
20
4.314246
30
0.0
11
2.186714
21
4.350212
31
0.0
0
LINE
8
Default
62
0
5
171
100
AcDbEntity
100
AcDbLine
10
2.186714
20
4.350212
30
0.0
11
2.222684
21
4.403544
31
0.0
0
LINE
8
Default
62
0
5
172
100
AcDbEntity
100
AcDbLine
10
2.222684
20
4.403544
30
0.0
11
2.235878
21
4.468834
31
0.0
0
LINE
8
Default
62
0
5
173
100
AcDbEntity
100
AcDbLine
10
2.235878
20
4.468834
30
0.0
11
2.222684
21
4.534158
31
0.0
0
LINE
8
Default
62
0
5
174
100
AcDbEntity
100
AcDbLine
10
2.222684
20
4.534158
30
0.0
11
2.186714
21
4.587587
31
0.0
0
LINE
8
Default
62
0
5
175
100
AcDbEntity
100
AcDbLine
10
2.186714
20
4.587587
30
0.0
11
2.133381
21
4.623653
31
0.0
0
LINE
8
Default
62
0
5
176
100
AcDbEntity
100
AcDbLine
10
2.133381
20
4.623653
30
0.0
11
2.068100
21
4.636889
31
0.0
0
LINE
8
Default
62
0
5
177
100
AcDbEntity
100
AcDbLine
10
2.068100
20
4.636889
30
0.0
11
2.001646
21
4.622917
31
0.0
0
LINE
8
Default
62
0
5
178
100
AcDbEntity
100
AcDbLine
10
2.001646
20
4.622917
30
0.0
11
1.946433
21
4.584112
31
0.0
0
LINE
8
Default
62
0
5
179
100
AcDbEntity
100
AcDbLine
10
1.946433
20
4.584112
30
0.0
11
1.898378
21
4.584112
31
0.0
0
LINE
8
Default
62
0
5
17a
100
AcDbEntity
100
AcDbLine
10
1.898378
20
4.584112
30
0.0
11
1.972068
21
4.650062
31
0.0
0
LINE
8
Default
62
0
5
17b
100
AcDbEntity
100
AcDbLine
10
1.972068
20
4.650062
30
0.0
11
2.068100
21
4.674112
31
0.0
0
LINE
8
Default
62
0
5
17c
100
AcDbEntity
100
AcDbLine
10
2.068100
20
4.674112
30
0.0
11
2.135251
21
4.662862
31
0.0
0
LINE
8
Default
62
0
5
17d
100
AcDbEntity
100
AcDbLine
10
2.135251
20
4.662862
30
0.0
11
2.193148
21
4.631637
31
0.0
0
LINE
8
Default
62
0
5
17e
100
AcDbEntity
100
AcDbLine
10
2.193148
20
4.631637
30
0.0
11
2.237965
21
4.584218
31
0.0
0
LINE
8
Default
62
0
5
17f
100
AcDbEntity
100
AcDbLine
10
2.237965
20
4.584218
30
0.0
11
2.265878
21
4.524389
31
0.0
0
LINE
8
Default
62
0
5
180
100
AcDbEntity
100
AcDbLine
10
2.265878
20
4.524389
30
0.0
11
2.391989
21
4.524389
31
0.0
0
LINE
8
Default
62
0
5
181
100
AcDbEntity
100
AcDbLine
10
2.391989
20
4.524389
30
0.0
11
2.425426
21
4.513196
31
0.0
0
LINE
8
Default
62
0
5
182
100
AcDbEntity
100
AcDbLine
10
2.425426
20
4.513196
30
0.0
11
2.445322
21
4.484112
31
0.0
0
LINE
8
Default
62
0
5
183
100
AcDbEntity
100
AcDbLine
10
2.445322
20
4.484112
30
0.0
11
2.534489
21
4.167445
31
0.0
0
LINE
8
Default
62
0
5
184
100
AcDbEntity
100
AcDbLine
10
2.534489
20
4.167445
30
0.0
11
2.754489
21
5.000500
31
0.0
0
LINE
8
Default
62
0
5
185
100
AcDbEntity
100
AcDbLine
10
2.754489
20
5.000500
30
0.0
11
2.774282
21
5.030135
31
0.0
0
LINE
8
Default
62
0
5
186
100
AcDbEntity
100
AcDbLine
10
2.774282
20
5.030135
30
0.0
11
2.808100
21
5.041612
31
0.0
0
LINE
8
Default
62
0
5
187
100
AcDbEntity
100
AcDbLine
10
2.808100
20
5.041612
30
0.0
11
2.841860
21
5.030308
31
0.0
0
LINE
8
Default
62
0
5
188
100
AcDbEntity
100
AcDbLine
10
2.841860
20
5.030308
30
0.0
11
2.861711
21
5.000778
31
0.0
0
LINE
8
Default
62
0
5
189
100
AcDbEntity
100
AcDbLine
10
2.861711
20
5.000778
30
0.0
11
3.086989
21
4.165500
31
0.0
0
LINE
8
Default
62
0
5
18a
100
AcDbEntity
100
AcDbLine
10
3.086989
20
4.165500
30
0.0
11
3.176711
21
4.484112
31
0.0
0
LINE
8
Default
62
0
5
18b
100
AcDbEntity
100
AcDbLine
10
3.176711
20
4.484112
30
0.0
11
3.196594
21
4.513196
31
0.0
0
LINE
8
Default
62
0
5
18c
100
AcDbEntity
100
AcDbLine
10
3.196594
20
4.513196
30
0.0
11
3.230044
21
4.524389
31
0.0
0
LINE
8
Default
62
0
5
18d
100
AcDbEntity
100
AcDbLine
10
3.230044
20
4.524389
30
0.0
11
3.471711
21
4.524389
31
0.0
0
LINE
8
Default
62
0
5
18e
100
AcDbEntity
100
AcDbLine
10
3.471711
20
4.524389
30
0.0
11
3.471711
21
4.598278
31
0.0
0
LINE
8
Default
62
0
5
18f
100
AcDbEntity
100
AcDbLine
10
3.471711
20
4.598278
30
0.0
11
3.345600
21
4.598278
31
0.0
0
LINE
8
Default
62
0
5
190
100
AcDbEntity
100
AcDbLine
10
3.345600
20
4.598278
30
0.0
11
3.306347
21
4.614446
31
0.0
0
LINE
8
Default
62
0
5
191
100
AcDbEntity
100
AcDbLine
10
3.306347
20
4.614446
30
0.0
11
3.290044
21
4.653556
31
0.0
0
LINE
8
Default
62
0
5
192
100
AcDbEntity
100
AcDbLine
10
3.290044
20
4.653556
30
0.0
11
3.306347
21
4.692662
31
0.0
0
LINE
8
Default
62
0
5
193
100
AcDbEntity
100
AcDbLine
10
3.306347
20
4.692662
30
0.0
11
3.345600
21
4.708834
31
0.0
0
LINE
8
Default
62
0
5
194
100
AcDbEntity
100
AcDbLine
10
3.345600
20
4.708834
30
0.0
11
3.526989
21
4.708834
31
0.0
0
LINE
8
Default
62
0
5
195
100
AcDbEntity
100
AcDbLine
10
3.526989
20
4.708834
30
0.0
11
3.708378
21
4.708834
31
0.0
0
LINE
8
Default
62
0
5
196
100
AcDbEntity
100
AcDbLine
10
3.708378
20
4.708834
30
0.0
11
3.747618
21
4.692662
31
0.0
0
LINE
8
Default
62
0
5
197
100
AcDbEntity
100
AcDbLine
10
3.747618
20
4.692662
30
0.0
11
3.763933
21
4.653556
31
0.0
0
LINE
8
Default
62
0
5
198
100
AcDbEntity
100
AcDbLine
10
3.763933
20
4.653556
30
0.0
11
3.747618
21
4.614446
31
0.0
0
LINE
8
Default
62
0
5
199
100
AcDbEntity
100
AcDbLine
10
3.747618
20
4.614446
30
0.0
11
3.708378
21
4.598278
31
0.0
0
LINE
8
Default
62
0
5
19a
100
AcDbEntity
100
AcDbLine
10
3.708378
20
4.598278
30
0.0
11
3.582267
21
4.598278
31
0.0
0
LINE
8
Default
62
0
5
19b
100
AcDbEntity
100
AcDbLine
10
3.582267
20
4.598278
30
0.0
11
3.582267
21
4.468834
31
0.0
0
LINE
8
Default
62
0
5
19c
100
AcDbEntity
100
AcDbLine
10
3.582267
20
4.468834
30
0.0
11
3.566094
21
4.429728
31
0.0
0
LINE
8
Default
62
0
5
19d
100
AcDbEntity
100
AcDbLine
10
3.566094
20
4.429728
30
0.0
11
3.526989
21
4.413556
31
0.0
0
LINE
8
Default
62
0
5
19e
100
AcDbEntity
100
AcDbLine
10
3.526989
20
4.413556
30
0.0
11
3.271989
21
4.413556
31
0.0
0
LINE
8
Default
62
0
5
19f
100
AcDbEntity
100
AcDbLine
10
3.271989
20
4.413556
30
0.0
11
3.138933
21
3.942167
31
0.0
0
LINE
8
Default
62
0
5
1a0
100
AcDbEntity
100
AcDbLine
10
3.138933
20
3.942167
30
0.0
11
3.118936
21
3.912978
31
0.0
0
LINE
8
Default
62
0
5
1a1
100
AcDbEntity
100
AcDbLine
10
3.118936
20
3.912978
30
0.0
11
3.085322
21
3.901889
31
0.0
0
LINE
8
Default
62
0
5
1a2
100
AcDbEntity
100
AcDbLine
10
3.085322
20
3.901889
30
0.0
11
3.051890
21
3.913335
31
0.0
0
LINE
8
Default
62
0
5
1a3
100
AcDbEntity
100
AcDbLine
10
3.051890
20
3.913335
30
0.0
11
3.032267
21
3.942723
31
0.0
0
LINE
8
Default
62
0
5
1a4
100
AcDbEntity
100
AcDbLine
10
3.032267
20
3.942723
30
0.0
11
2.808656
21
4.771612
31
0.0
0
LINE
8
Default
62
0
5
1a5
100
AcDbEntity
100
AcDbLine
10
2.808656
20
4.771612
30
0.0
11
2.589767
21
3.943000
31
0.0
0
LINE
8
Default
62
0
5
1a6
100
AcDbEntity
100
AcDbLine
10
2.589767
20
3.943000
30
0.0
11
2.570201
21
3.913470
31
0.0
0
LINE
8
Default
62
0
5
1a7
100
AcDbEntity
100
AcDbLine
10
2.570201
20
3.913470
30
0.0
11
2.536711
21
3.901889
31
0.0
0
LINE
8
Default
62
0
5
1a8
100
AcDbEntity
100
AcDbLine
10
2.536711
20
3.901889
30
0.0
11
2.536711
21
3.901889
31
0.0
0
LINE
8
Default
62
0
5
1a9
100
AcDbEntity
100
AcDbLine
10
0.295322
20
4.229389
30
0.0
11
0.574139
21
4.258572
31
0.0
0
LINE
8
Default
62
0
5
1aa
100
AcDbEntity
100
AcDbLine
10
0.574139
20
4.258572
30
0.0
11
0.168933
21
4.483278
31
0.0
0
LINE
8
Default
62
0
5
1ab
100
AcDbEntity
100
AcDbLine
10
0.168933
20
4.483278
30
0.0
11
0.021156
21
4.568556
31
0.0
0
LINE
8
Default
62
0
5
1ac
100
AcDbEntity
100
AcDbLine
10
0.021156
20
4.568556
30
0.0
11
0.176433
21
4.299667
31
0.0
0
LINE
8
Default
62
0
5
1ad
100
AcDbEntity
100
AcDbLine
10
0.176433
20
4.299667
30
0.0
11
0.209211
21
4.306334
31
0.0
0
LINE
8
Default
62
0
5
1ae
100
AcDbEntity
100
AcDbLine
10
0.209211
20
4.306334
30
0.0
11
0.267177
21
4.284096
31
0.0
0
LINE
8
Default
62
0
5
1af
100
AcDbEntity
100
AcDbLine
10
0.267177
20
4.284096
30
0.0
11
0.295322
21
4.229389
31
0.0
0
LINE
8
Default
62
0
5
1b0
100
AcDbEntity
100
AcDbLine
10
0.295322
20
4.229389
30
0.0
11
0.295322
21
4.229389
31
0.0
0
LINE
8
Default
62
0
5
1b1
100
AcDbEntity
100
AcDbLine
10
3.424767
20
4.763556
30
0.0
11
3.385657
21
4.779859
31
0.0
0
LINE
8
Default
62
0
5
1b2
100
AcDbEntity
100
AcDbLine
10
3.385657
20
4.779859
30
0.0
11
3.369489
21
4.819112
31
0.0
0
LINE
8
Default
62
0
5
1b3
100
AcDbEntity
100
AcDbLine
10
3.369489
20
4.819112
30
0.0
11
3.385657
21
4.858217
31
0.0
0
LINE
8
Default
62
0
5
1b4
100
AcDbEntity
100
AcDbLine
10
3.385657
20
4.858217
30
0.0
11
3.424767
21
4.874389
31
0.0
0
LINE
8
Default
62
0
5
1b5
100
AcDbEntity
100
AcDbLine
10
3.424767
20
4.874389
30
0.0
11
3.633100
21
4.874389
31
0.0
0
LINE
8
Default
62
0
5
1b6
100
AcDbEntity
100
AcDbLine
10
3.633100
20
4.874389
30
0.0
11
3.672349
21
4.858217
31
0.0
0
LINE
8
Default
62
0
5
1b7
100
AcDbEntity
100
AcDbLine
10
3.672349
20
4.858217
30
0.0
11
3.688656
21
4.819112
31
0.0
0
LINE
8
Default
62
0
5
1b8
100
AcDbEntity
100
AcDbLine
10
3.688656
20
4.819112
30
0.0
11
3.672349
21
4.779859
31
0.0
0
LINE
8
Default
62
0
5
1b9
100
AcDbEntity
100
AcDbLine
10
3.672349
20
4.779859
30
0.0
11
3.633100
21
4.763556
31
0.0
0
LINE
8
Default
62
0
5
1ba
100
AcDbEntity
100
AcDbLine
10
3.633100
20
4.763556
30
0.0
11
3.424767
21
4.763556
31
0.0
0
LINE
8
Default
62
0
5
1bb
100
AcDbEntity
100
AcDbLine
10
3.521989
20
4.918278
30
0.0
11
3.482883
21
4.934446
31
0.0
0
LINE
8
Default
62
0
5
1bc
100
AcDbEntity
100
AcDbLine
10
3.482883
20
4.934446
30
0.0
11
3.466711
21
4.973556
31
0.0
0
LINE
8
Default
62
0
5
1bd
100
AcDbEntity
100
AcDbLine
10
3.466711
20
4.973556
30
0.0
11
3.482883
21
5.012670
31
0.0
0
LINE
8
Default
62
0
5
1be
100
AcDbEntity
100
AcDbLine
10
3.482883
20
5.012670
30
0.0
11
3.521989
21
5.028834
31
0.0
0
LINE
8
Default
62
0
5
1bf
100
AcDbEntity
100
AcDbLine
10
3.521989
20
5.028834
30
0.0
11
3.543100
21
5.028834
31
0.0
0
LINE
8
Default
62
0
5
1c0
100
AcDbEntity
100
AcDbLine
10
3.543100
20
5.028834
30
0.0
11
3.582206
21
5.012670
31
0.0
0
LINE
8
Default
62
0
5
1c1
100
AcDbEntity
100
AcDbLine
10
3.582206
20
5.012670
30
0.0
11
3.598378
21
4.973556
31
0.0
0
LINE
8
Default
62
0
5
1c2
100
AcDbEntity
100
AcDbLine
10
3.598378
20
4.973556
30
0.0
11
3.582206
21
4.934446
31
0.0
0
LINE
8
Default
62
0
5
1c3
100
AcDbEntity
100
AcDbLine
10
3.582206
20
4.934446
30
0.0
11
3.543100
21
4.918278
31
0.0
0
LINE
8
Default
62
0
5
1c4
100
AcDbEntity
100
AcDbLine
10
3.543100
20
4.918278
30
0.0
11
3.521989
21
4.918278
31
0.0
0
LINE
8
Default
62
0
5
1c5
100
AcDbEntity
100
AcDbLine
10
0.000000
20
3.853962
30
0.0
11
0.124556
21
3.925906
31
0.0
0
LINE
8
Default
62
0
5
1c6
100
AcDbEntity
100
AcDbLine
10
0.124556
20
3.925906
30
0.0
11
0.000000
21
3.997850
31
0.0
0
LINE
8
Default
62
0
5
1c7
100
AcDbEntity
100
AcDbLine
10
0.000000
20
3.997850
30
0.0
11
0.000000
21
3.853962
31
0.0
0
LINE
8
Default
62
0
5
1c8
100
AcDbEntity
100
AcDbLine
10
0.000000
20
3.853962
30
0.0
11
0.000000
21
3.853962
31
0.0
  0
ENDSEC
  0
SECTION
  2
OBJECTS
  0
DICTIONARY
  5
C
330
0
100
AcDbDictionary
  3
ACAD_GROUP
350
D
  3
ACAD_MLINESTYLE
350
17
  0
DICTIONARY
  5
D
330
C
100
AcDbDictionary
  0
DICTIONARY
  5
1A
330
C
100
AcDbDictionary
  0
DICTIONARY
  5
17
330
C
100
AcDbDictionary
  3
STANDARD
350
18
  0
DICTIONARY
  5
19
330
C
100
AcDbDictionary
  0
ENDSEC
  0
EOF
